<?xml version="1.0" encoding="UTF-8" standalone="no"?>
<!-- Created with Inkscape (http://www.inkscape.org/) -->

<svg
   width="84.846786mm"
   height="71.373573mm"
   viewBox="0 0 84.846786 71.373573"
   version="1.1"
   id="svg5"
   xmlns="http://www.w3.org/2000/svg"
   xmlns:svg="http://www.w3.org/2000/svg">
  <defs
     id="defs2">
    <clipPath
       clipPathUnits="userSpaceOnUse"
       id="clipPath1666">
      <circle
         style="display:none;fill:#ffffff;fill-opacity:1;stroke:none;stroke-width:0.469328;stroke-linecap:round;stroke-dasharray:none;stroke-opacity:1"
         id="circle1668"
         cx="78.203606"
         cy="59.853252"
         r="1.913805" />
      <path
         id="lpe_path-effect1670"
         style="fill:#ffffff;fill-opacity:1;stroke:none;stroke-width:0.469328;stroke-linecap:round;stroke-dasharray:none;stroke-opacity:1"
         class="powerclip"
         d="M 36.828725,48.767472 H 122.62637 V 130.14105 H 36.828725 Z m 43.288686,11.08578 a 1.913805,1.913805 0 0 0 -1.913805,-1.913805 1.913805,1.913805 0 0 0 -1.913805,1.913805 1.913805,1.913805 0 0 0 1.913805,1.913805 1.913805,1.913805 0 0 0 1.913805,-1.913805 z" />
    </clipPath>
  </defs>
  <g
     id="layer1"
     transform="translate(-32.77958,-53.952608)">
    <g
       id="g541"
       style="fill:#ffffff;fill-opacity:1;stroke:none;stroke-opacity:1"
       transform="translate(0,0.18513862)"
       clip-path="url(#clipPath1666)">
      <path
         id="path165"
         style="fill:#ffffff;fill-opacity:1;stroke:none;stroke-width:0.204855;stroke-opacity:1"
         d="m 63.680058,91.369034 c 0.04096,0.0043 -13.688374,27.392316 -13.688374,27.392316 0,0 -6.544062,7.09578 -7.802673,6.3205 -1.237487,-0.76228 1.109937,-10.0961 1.109937,-10.0961 0,0 6.840496,-17.213885 12.670911,-28.025812 C 66.39022,67.636388 76.781327,52.986462 81.122118,55.947466 85.462909,58.908471 74.10042,72.045511 63.680062,91.369034 Z" />
      <path
         id="rect372"
         style="fill:#ffffff;fill-opacity:1;stroke:none;stroke-width:0.264583;stroke-opacity:1"
         d="m 81.543946,88.815939 c 0.217499,-0.430626 0.908111,-0.719543 0.908111,-0.719543 l 9.712026,-5.602828 25.462287,34.081992 c 0,0 -2.12398,5.12977 -4.52582,5.85405 -2.14866,0.64793 -6.67871,-0.85089 -6.67871,-0.85089 L 81.393654,89.510927 c 0,0 -0.002,-0.393549 0.150292,-0.694988 z" />
      <path
         id="rect375"
         style="fill:#ffffff;fill-opacity:1;stroke:none;stroke-width:0.264583;stroke-opacity:1"
         d="m 63.769482,56.650377 c 0,0 0.79086,-2.840522 1.950258,-2.882774 0.657748,-0.02397 0.91195,3.241482 0.91195,3.241482 0,0 12.139773,6.816857 16.609913,12.303475 3.155295,3.872787 9.2713,14.138937 9.2713,14.138937 l -3.388844,1.114377 z" />
    </g>
    <g
       id="g559"
       transform="matrix(0.9668678,0,0,0.9668678,1.9113172,5.1996977)"
       style="fill:#ffffff;fill-opacity:1;stroke:#ffffff;stroke-opacity:1">
      <path
         id="rect483"
         style="fill:#ffffff;fill-opacity:1;stroke:none;stroke-width:0.185208;stroke-linecap:round;stroke-dasharray:none;stroke-opacity:1"
         d="m 31.974253,70.594124 c 0.250128,-0.183805 1.468794,1.027019 1.745381,1.354967 l 5.134281,6.087964 c 0.520234,0.61685 0.455434,1.475485 -0.05167,1.848236 -0.507227,0.372754 -1.346019,0.178149 -1.779346,-0.502583 L 32.74619,72.664507 C 32.515806,72.302619 31.724209,70.77793 31.974334,70.594124 Z" />
      <path
         id="path508"
         style="fill:#ffffff;fill-opacity:1;stroke:none;stroke-width:0.185208;stroke-linecap:round;stroke-dasharray:none;stroke-opacity:1"
         d="m 32.967413,69.864274 c 0.250119,-0.183792 1.468788,1.027022 1.745364,1.35497 l 5.134295,6.087965 c 0.520232,0.616855 0.455425,1.475484 -0.05167,1.848233 -0.507229,0.372759 -1.346031,0.178161 -1.779359,-0.502571 l -4.2767,-6.718201 c -0.230387,-0.361888 -1.022002,-1.886587 -0.771851,-2.070396 z" />
      <path
         id="path510"
         style="fill:#ffffff;fill-opacity:1;stroke:none;stroke-width:0.185208;stroke-linecap:round;stroke-dasharray:none;stroke-opacity:1"
         d="m 33.960567,69.134423 c 0.250119,-0.183788 1.468796,1.027036 1.745362,1.354984 l 5.134285,6.087955 c 0.520232,0.616851 0.455431,1.475484 -0.05168,1.848238 -0.507235,0.372754 -1.34604,0.178156 -1.779373,-0.502576 l -4.276685,-6.718201 c -0.23038,-0.361888 -1.021961,-1.886577 -0.771851,-2.0704 z" />
      <path
         id="path512"
         style="fill:#ffffff;fill-opacity:1;stroke:none;stroke-width:0.185208;stroke-linecap:round;stroke-dasharray:none;stroke-opacity:1"
         d="m 34.953712,68.404573 c 0.250133,-0.183775 1.468795,1.027039 1.74538,1.354987 l 5.134271,6.087956 c 0.520234,0.616847 0.455435,1.47548 -0.05167,1.848234 -0.507236,0.372754 -1.34602,0.178159 -1.779351,-0.502563 L 35.725613,70.474986 C 35.495232,70.113098 34.70365,68.588399 34.953762,68.404573 Z" />
      <path
         id="path514"
         style="fill:#ffffff;fill-opacity:1;stroke:none;stroke-width:0.185208;stroke-linecap:round;stroke-dasharray:none;stroke-opacity:1"
         d="m 35.946861,67.674736 c 0.250127,-0.183785 1.468794,1.027039 1.745382,1.354987 l 5.134283,6.087943 c 0.520233,0.616847 0.455435,1.47548 -0.05167,1.848234 -0.507232,0.372754 -1.346023,0.178172 -1.779352,-0.50256 L 36.718776,69.745139 C 36.488391,69.383248 35.69681,67.858562 35.946921,67.674736 Z" />
      <path
         id="path516"
         style="fill:#ffffff;fill-opacity:1;stroke:none;stroke-width:0.185208;stroke-linecap:round;stroke-dasharray:none;stroke-opacity:1"
         d="m 36.940023,66.944889 c 0.250113,-0.183783 1.468789,1.027039 1.745363,1.354987 l 5.134295,6.08794 c 0.520231,0.616851 0.455425,1.47548 -0.05167,1.848234 -0.507231,0.372754 -1.346031,0.178175 -1.779359,-0.502547 L 37.711947,69.015302 C 37.481567,68.6534 36.689948,67.128715 36.940096,66.944889 Z" />
      <path
         id="path518"
         style="fill:#ffffff;fill-opacity:1;stroke:none;stroke-width:0.185208;stroke-linecap:round;stroke-dasharray:none;stroke-opacity:1"
         d="m 37.933176,66.215052 c 0.250121,-0.183796 1.468797,1.027039 1.745363,1.354987 l 5.134284,6.087927 c 0.520231,0.616854 0.455425,1.47549 -0.05169,1.848239 -0.507237,0.372749 -1.34604,0.178174 -1.779372,-0.502549 l -4.276696,-6.718201 c -0.23038,-0.361906 -1.021973,-1.886577 -0.77185,-2.070403 z" />
      <path
         id="path520"
         style="fill:#ffffff;fill-opacity:1;stroke:none;stroke-width:0.185208;stroke-linecap:round;stroke-dasharray:none;stroke-opacity:1"
         d="m 38.92632,65.485205 c 0.250134,-0.183798 1.468795,1.027039 1.745383,1.354987 l 5.13427,6.087933 c 0.520233,0.616858 0.455436,1.475484 -0.05167,1.848233 -0.507236,0.372759 -1.346017,0.178174 -1.779349,-0.502539 l -4.2767,-6.718201 C 39.46787,67.193699 38.676289,65.669031 38.926401,65.485205 Z" />
      <path
         id="path522"
         style="fill:#ffffff;fill-opacity:1;stroke:none;stroke-width:0.185208;stroke-linecap:round;stroke-dasharray:none;stroke-opacity:1"
         d="m 39.919471,64.755368 c 0.250126,-0.183811 1.46879,1.027039 1.74538,1.354987 l 5.134285,6.087923 c 0.520234,0.616858 0.455436,1.475494 -0.05167,1.848243 -0.507228,0.372749 -1.346022,0.178162 -1.779351,-0.502549 L 40.691419,66.825771 C 40.461031,66.46385 39.66943,64.939194 39.919559,64.755368 Z" />
      <path
         id="path524"
         style="fill:#ffffff;fill-opacity:1;stroke:none;stroke-width:0.185208;stroke-linecap:round;stroke-dasharray:none;stroke-opacity:1"
         d="m 40.912634,64.025521 c 0.250111,-0.183814 1.468789,1.027039 1.745362,1.354987 l 5.134294,6.087933 c 0.520232,0.616858 0.455423,1.475484 -0.05167,1.848233 -0.507231,0.372759 -1.346031,0.178159 -1.779359,-0.502539 L 41.68455,66.095934 c -0.23038,-0.361929 -1.021998,-1.886587 -0.771851,-2.070413 z" />
      <path
         id="path526"
         style="fill:#ffffff;fill-opacity:1;stroke:none;stroke-width:0.185208;stroke-linecap:round;stroke-dasharray:none;stroke-opacity:1"
         d="m 41.905786,63.295684 c 0.250121,-0.183826 1.468795,1.027039 1.745365,1.354987 l 5.13428,6.087923 c 0.520233,0.616858 0.455426,1.475494 -0.0517,1.848243 -0.507237,0.372749 -1.346036,0.178145 -1.779368,-0.50255 l -4.276703,-6.7182 C 42.447287,65.004158 41.655688,63.47951 41.905817,63.295684 Z" />
      <path
         id="path528"
         style="fill:#ffffff;fill-opacity:1;stroke:none;stroke-width:0.185208;stroke-linecap:round;stroke-dasharray:none;stroke-opacity:1"
         d="m 42.898927,62.565847 c 0.250136,-0.183826 1.468796,1.027029 1.745386,1.354977 l 5.134272,6.087933 c 0.520233,0.616858 0.455434,1.475484 -0.05167,1.848243 -0.507235,0.372749 -1.346018,0.178132 -1.779347,-0.50256 l -4.276695,-6.71819 c -0.230392,-0.361929 -1.021974,-1.886587 -0.771866,-2.070403 z" />
      <path
         id="path530"
         style="fill:#ffffff;fill-opacity:1;stroke:none;stroke-width:0.185208;stroke-linecap:round;stroke-dasharray:none;stroke-opacity:1"
         d="m 43.892082,61.836 c 0.250121,-0.183826 1.468788,1.027031 1.745377,1.354987 l 5.134288,6.087923 c 0.520241,0.616858 0.455434,1.475494 -0.05167,1.848243 -0.507227,0.372749 -1.346023,0.178142 -1.779352,-0.502563 L 44.664029,63.906402 C 44.433645,63.544474 43.642032,62.019814 43.892174,61.836 Z" />
      <path
         id="path532"
         style="fill:#ffffff;fill-opacity:1;stroke:none;stroke-width:0.185208;stroke-linecap:round;stroke-dasharray:none;stroke-opacity:1"
         d="m 44.885245,61.106153 c 0.25011,-0.183816 1.468788,1.027029 1.745357,1.354987 l 5.134297,6.087933 c 0.52023,0.616858 0.455421,1.475484 -0.05168,1.848233 -0.507234,0.372759 -1.346034,0.178152 -1.779361,-0.502566 L 45.65717,63.176552 c -0.230383,-0.361915 -1.02199,-1.886587 -0.771853,-2.070399 z" />
      <path
         id="path534"
         style="fill:#ffffff;fill-opacity:1;stroke:none;stroke-width:0.185208;stroke-linecap:round;stroke-dasharray:none;stroke-opacity:1"
         d="m 45.878393,60.376316 c 0.250125,-0.183826 1.468797,1.027016 1.745368,1.354981 l 5.134277,6.087929 c 0.52023,0.616858 0.45543,1.475494 -0.0517,1.848243 -0.507236,0.372749 -1.346033,0.178142 -1.779364,-0.50258 L 46.650273,62.446703 C 46.419884,62.08479 45.628294,60.560115 45.878414,60.376316 Z" />
      <path
         id="path386"
         style="fill:#ffffff;fill-opacity:1;stroke:none;stroke-width:0.79375;stroke-linecap:round;stroke-dasharray:none;stroke-opacity:1"
         d="M 69.131283,90.361565 C 77.561525,101.83312 88.079717,118.06633 81.255269,123.2059 74.4308,128.34587 61.961107,113.29768 53.530864,101.82592 48.37493,94.809917 35.734925,85.922072 34.239755,79.469096 c -0.949523,-4.097991 1.847511,-6.529961 7.167123,-10.487625 5.568796,-4.143037 8.465373,-6.306642 12.226558,-3.846203 5.4893,3.590936 10.495301,18.418969 15.497847,25.226297 z" />
    </g>
  </g>
</svg>
